<svg aria-roledescription="gitGraph" role="graphics-document document" viewBox="-239.203125 -34.70000076293945 647.203125 462.8053283691406" height="100%" xmlns="http://www.w3.org/2000/svg" width="647.203125" id="graph-div" style="max-width: 100%;" xmlns:xlink="http://www.w3.org/1999/xlink"><style>@import url("https://cdnjs.cloudflare.com/ajax/libs/font-awesome/6.5.0/css/all.min.css");'</style><style>#graph-div{font-family:"trebuchet ms",verdana,arial,sans-serif;font-size:16px;fill:#333;}#graph-div .error-icon{fill:#552222;}#graph-div .error-text{fill:#552222;stroke:#552222;}#graph-div .edge-thickness-normal{stroke-width:2px;}#graph-div .edge-thickness-thick{stroke-width:3.5px;}#graph-div .edge-pattern-solid{stroke-dasharray:0;}#graph-div .edge-pattern-dashed{stroke-dasharray:3;}#graph-div .edge-pattern-dotted{stroke-dasharray:2;}#graph-div .marker{fill:#333333;stroke:#333333;}#graph-div .marker.cross{stroke:#333333;}#graph-div svg{font-family:"trebuchet ms",verdana,arial,sans-serif;font-size:16px;}#graph-div .commit-id,#graph-div .commit-msg,#graph-div .branch-label{fill:lightgrey;color:lightgrey;font-family:'trebuchet ms',verdana,arial,sans-serif;font-family:var(--mermaid-font-family);}#graph-div .branch-label0{fill:#ffffff;}#graph-div .commit0{stroke:hsl(240, 100%, 46.2745098039%);fill:hsl(240, 100%, 46.2745098039%);}#graph-div .commit-highlight0{stroke:hsl(60, 100%, 3.7254901961%);fill:hsl(60, 100%, 3.7254901961%);}#graph-div .label0{fill:hsl(240, 100%, 46.2745098039%);}#graph-div .arrow0{stroke:hsl(240, 100%, 46.2745098039%);}#graph-div .branch-label1{fill:black;}#graph-div .commit1{stroke:hsl(60, 100%, 43.5294117647%);fill:hsl(60, 100%, 43.5294117647%);}#graph-div .commit-highlight1{stroke:rgb(0, 0, 160.5);fill:rgb(0, 0, 160.5);}#graph-div .label1{fill:hsl(60, 100%, 43.5294117647%);}#graph-div .arrow1{stroke:hsl(60, 100%, 43.5294117647%);}#graph-div .branch-label2{fill:black;}#graph-div .commit2{stroke:hsl(80, 100%, 46.2745098039%);fill:hsl(80, 100%, 46.2745098039%);}#graph-div .commit-highlight2{stroke:rgb(48.8333333334, 0, 146.5000000001);fill:rgb(48.8333333334, 0, 146.5000000001);}#graph-div .label2{fill:hsl(80, 100%, 46.2745098039%);}#graph-div .arrow2{stroke:hsl(80, 100%, 46.2745098039%);}#graph-div .branch-label3{fill:#ffffff;}#graph-div .commit3{stroke:hsl(210, 100%, 46.2745098039%);fill:hsl(210, 100%, 46.2745098039%);}#graph-div .commit-highlight3{stroke:rgb(146.5000000001, 73.2500000001, 0);fill:rgb(146.5000000001, 73.2500000001, 0);}#graph-div .label3{fill:hsl(210, 100%, 46.2745098039%);}#graph-div .arrow3{stroke:hsl(210, 100%, 46.2745098039%);}#graph-div .branch-label4{fill:black;}#graph-div .commit4{stroke:hsl(180, 100%, 46.2745098039%);fill:hsl(180, 100%, 46.2745098039%);}#graph-div .commit-highlight4{stroke:rgb(146.5000000001, 0, 0);fill:rgb(146.5000000001, 0, 0);}#graph-div .label4{fill:hsl(180, 100%, 46.2745098039%);}#graph-div .arrow4{stroke:hsl(180, 100%, 46.2745098039%);}#graph-div .branch-label5{fill:black;}#graph-div .commit5{stroke:hsl(150, 100%, 46.2745098039%);fill:hsl(150, 100%, 46.2745098039%);}#graph-div .commit-highlight5{stroke:rgb(146.5000000001, 0, 73.2500000001);fill:rgb(146.5000000001, 0, 73.2500000001);}#graph-div .label5{fill:hsl(150, 100%, 46.2745098039%);}#graph-div .arrow5{stroke:hsl(150, 100%, 46.2745098039%);}#graph-div .branch-label6{fill:black;}#graph-div .commit6{stroke:hsl(300, 100%, 46.2745098039%);fill:hsl(300, 100%, 46.2745098039%);}#graph-div .commit-highlight6{stroke:rgb(0, 146.5000000001, 0);fill:rgb(0, 146.5000000001, 0);}#graph-div .label6{fill:hsl(300, 100%, 46.2745098039%);}#graph-div .arrow6{stroke:hsl(300, 100%, 46.2745098039%);}#graph-div .branch-label7{fill:black;}#graph-div .commit7{stroke:hsl(0, 100%, 46.2745098039%);fill:hsl(0, 100%, 46.2745098039%);}#graph-div .commit-highlight7{stroke:rgb(0, 146.5000000001, 146.5000000001);fill:rgb(0, 146.5000000001, 146.5000000001);}#graph-div .label7{fill:hsl(0, 100%, 46.2745098039%);}#graph-div .arrow7{stroke:hsl(0, 100%, 46.2745098039%);}#graph-div .branch{stroke-width:1;stroke:#333333;stroke-dasharray:2;}#graph-div .commit-label{font-size:10px;fill:#000021;}#graph-div .commit-label-bkg{font-size:10px;fill:#ffffde;opacity:0.5;}#graph-div .tag-label{font-size:10px;fill:#131300;}#graph-div .tag-label-bkg{fill:#ECECFF;stroke:hsl(240, 60%, 86.2745098039%);}#graph-div .tag-hole{fill:#333;}#graph-div .commit-merge{stroke:#ECECFF;fill:#ECECFF;}#graph-div .commit-reverse{stroke:#ECECFF;fill:#ECECFF;stroke-width:3;}#graph-div .commit-highlight-inner{stroke:#ECECFF;fill:#ECECFF;}#graph-div .arrow{stroke-width:8;stroke-linecap:round;fill:none;}#graph-div .gitTitleText{text-anchor:middle;font-size:18px;fill:#333;}#graph-div :root{--mermaid-font-family:"trebuchet ms",verdana,arial,sans-serif;}</style><g></g><g class="commit-bullets"></g><g class="commit-labels"></g><g><line class="branch branch0" y2="0" x2="400" y1="0" x1="0"></line><rect transform="translate(-19, -9.5)" height="23" width="53" y="-1.5" x="-69" ry="4" rx="4" class="branchLabelBkg label0"></rect><g class="branchLabel"><g transform="translate(-79, -10.5)" class="label branch-label0"><text><tspan class="row" x="0" dy="1em" xml:space="preserve">main</tspan></text></g></g><line class="branch branch1" y2="90" x2="400" y1="90" x1="0"></line><rect transform="translate(-19, 80.5)" height="23" width="185.296875" y="-1.5" x="-201.296875" ry="4" rx="4" class="branchLabelBkg label1"></rect><g class="branchLabel"><g transform="translate(-211.296875, 79.5)" class="label branch-label1"><text><tspan class="row" x="0" dy="1em" xml:space="preserve">hotfix/{ticket_number}</tspan></text></g></g><line class="branch branch2" y2="180" x2="400" y1="180" x1="0"></line><rect transform="translate(-19, 170.5)" height="23" width="98.15625" y="-1.5" x="-114.15625" ry="4" rx="4" class="branchLabelBkg label2"></rect><g class="branchLabel"><g transform="translate(-124.15625, 169.5)" class="label branch-label2"><text><tspan class="row" x="0" dy="1em" xml:space="preserve">release/{x}</tspan></text></g></g><line class="branch branch3" y2="270" x2="400" y1="270" x1="0"></line><rect transform="translate(-19, 260.5)" height="23" width="74.421875" y="-1.5" x="-90.421875" ry="4" rx="4" class="branchLabelBkg label3"></rect><g class="branchLabel"><g transform="translate(-100.421875, 259.5)" class="label branch-label3"><text><tspan class="row" x="0" dy="1em" xml:space="preserve">develop</tspan></text></g></g><line class="branch branch4" y2="360" x2="400" y1="360" x1="0"></line><rect transform="translate(-19, 350.5)" height="23" width="196.203125" y="-1.5" x="-212.203125" ry="4" rx="4" class="branchLabelBkg label4"></rect><g class="branchLabel"><g transform="translate(-222.203125, 349.5)" class="label branch-label4"><text><tspan class="row" x="0" dy="1em" xml:space="preserve">feature/{ticket_number}</tspan></text></g></g></g><g class="commit-arrows"><path class="arrow arrow3" d="M 10 0 L 10 250 A 20 20, 0, 0, 0, 30 270 L 60 270"></path><path class="arrow arrow4" d="M 60 270 L 60 340 A 20 20, 0, 0, 0, 80 360 L 110 360"></path><path class="arrow arrow3" d="M 60 270 L 60 270  60 270 L 160 270"></path><path class="arrow arrow4" d="M 110 360 L 140 360 A 20 20, 0, 0, 0, 160 340 L 160 270"></path><path class="arrow arrow2" d="M 10 0 L 10 160 A 20 20, 0, 0, 0, 30 180 L 210 180"></path><path class="arrow arrow3" d="M 160 270 L 190 270 A 20 20, 0, 0, 0, 210 250 L 210 180"></path><path class="arrow arrow0" d="M 10 0 L 10 0  10 0 L 260 0"></path><path class="arrow arrow2" d="M 210 180 L 240 180 A 20 20, 0, 0, 0, 260 160 L 260 0"></path><path class="arrow arrow1" d="M 10 0 L 10 70 A 20 20, 0, 0, 0, 30 90 L 310 90"></path><path class="arrow arrow3" d="M 160 270 L 160 270  160 270 L 360 270"></path><path class="arrow arrow3" d="M 310 90 L 310 250 A 20 20, 0, 0, 0, 330 270 L 360 270"></path></g><g class="commit-bullets"><circle class="commit 1:init commit0" r="10" cy="0" cx="10"></circle><circle class="commit 2:init commit3" r="10" cy="270" cx="60"></circle><circle class="commit 3:commit-x commit4" r="10" cy="360" cx="110"></circle><rect class="commit 4:merge-feat commit-highlight3 commit-highlight-outer" width="20" height="20" y="260" x="150"></rect><rect class="commit 4:merge-feat commit3 commit-highlight-inner" width="12" height="12" y="264" x="154"></rect><circle class="commit 5:release-x commit2" r="9" cy="180" cx="210"></circle><circle class="commit commit-merge 5:release-x commit2" r="6" cy="180" cx="210"></circle><rect class="commit 6:merge-release commit-highlight0 commit-highlight-outer" width="20" height="20" y="-10" x="250"></rect><rect class="commit 6:merge-release commit0 commit-highlight-inner" width="12" height="12" y="-6" x="254"></rect><circle class="commit 7:commit-hotfix commit1" r="10" cy="90" cx="310"></circle><rect class="commit 8:merge-hotfix commit-highlight3 commit-highlight-outer" width="20" height="20" y="260" x="350"></rect><rect class="commit 8:merge-hotfix commit3 commit-highlight-inner" width="12" height="12" y="264" x="354"></rect></g><g class="commit-labels"><g transform="translate(-20.44375, 18.18125) rotate(-45, 0, 0)"><rect height="15" width="28.0625" y="13.5" x="-4.03125" class="commit-label-bkg"></rect><text class="commit-label" y="25" x="-2.03125">1:init</text></g><g transform="translate(-20.44375, 18.18125) rotate(-45, 50, 270)"><rect height="15" width="28.0625" y="283.5" x="45.96875" class="commit-label-bkg"></rect><text class="commit-label" y="295" x="47.96875">2:init</text></g><g transform="translate(-30.810624999999998, 27.456875) rotate(-45, 100, 360)"><rect height="15" width="55.34375" y="373.5" x="82.328125" class="commit-label-bkg"></rect><text class="commit-label" y="385" x="84.328125">3:commit-x</text></g><g transform="translate(-33.7496875, 30.0865625) rotate(-45, 150, 270)"><rect height="15.05078125" width="63.078125" y="283.5" x="128.4609375" class="commit-label-bkg"></rect><text class="commit-label" y="295" x="130.4609375">4:merge-feat</text></g><g transform="translate(-30.3415625, 27.0371875) rotate(-45, 200, 180)"><rect height="15" width="54.109375" y="193.5" x="182.9453125" class="commit-label-bkg"></rect><text class="commit-label" y="205" x="184.9453125">5:release-x</text></g><g transform="translate(-39.1171875, 34.8890625) rotate(-45, 250, 0)"><rect height="15.05078125" width="77.203125" y="13.5" x="221.3984375" class="commit-label-bkg"></rect><text class="commit-label" y="25" x="223.3984375">6:merge-release</text></g><polygon points="232.84375,-17.2
          232.84375,-21.2
          240.84375,-26.7
          279.15625,-26.7
          279.15625,-11.7
          240.84375,-11.7" class="tag-label-bkg"></polygon><circle class="tag-hole" r="1.5" cy="-19.2" cx="236.84375"></circle><text x="244.84375" class="tag-label" y="-16">v.1.0.0</text><g transform="translate(-38.92125, 34.713750000000005) rotate(-45, 300, 90)"><rect height="15" width="76.6875" y="103.5" x="271.65625" class="commit-label-bkg"></rect><text class="commit-label" y="115" x="273.65625">7:commit-hotfix</text></g><g transform="translate(-36.78375, 32.801249999999996) rotate(-45, 350, 270)"><rect height="15.05078125" width="71.0625" y="283.5" x="324.46875" class="commit-label-bkg"></rect><text class="commit-label" y="295" x="326.46875">8:merge-hotfix</text></g></g></svg>