<?xml version="1.0" encoding="utf-8" standalone="yes"?>
<!DOCTYPE svg PUBLIC "-//W3C//DTD SVG 1.1//EN" "http://www.w3.org/Graphics/SVG/1.1/DTD/svg11.dtd">
<svg width="840" height="744" viewBox="0 0 840 744" style="fill:none;stroke:none;fill-rule:evenodd;clip-rule:evenodd;stroke-linecap:round;stroke-linejoin:round;stroke-miterlimit:1.5;" version="1.1" xmlns="http://www.w3.org/2000/svg" xmlns:xlink="http://www.w3.org/1999/xlink"><style id="fontImports">@import url("https://fonts.googleapis.com/css2?family=Roboto:wght@400;700&amp;display=block");</style><rect id="" x="0" y="0" width="840" height="744" style="fill: #ffffff;"></rect><g id="items" style="isolation: isolate"><g id="blend" style="mix-blend-mode:multiply"><g id="g-root-5.cu_sy_1hd7kljdmp2q1-fill" data-item-order="999813380" data-item-id="5.cu_sy_1hd7kljdmp2q1" data-item-class="Part Indexed Fill Stroke ColorStrokeBlack" data-item-index="5" data-renderer-id="0" transform="translate(204.5164794921875, 158.0001220703125)"><g id="5.cu_sy_1hd7kljdmp2q1-fill" stroke="none" fill="url(#gradient-f783c9-143094716)"><g><path d="M 215.483 10C 119.491 10 38.1242 72.6171 10 159.233L 89.9073 185.207C 96.6966 164.293 108.5656 145.667 124.059 130.787L 145.495 160.291C 153.731 151.523 163.595 144.302 174.606 139.113L 153.168 109.6059C 171.729 99.6481 192.947 94 215.484 94L 215.483 10Z"></path></g></g></g><g id="g-root-4.cu_sy_1hd7kljdmp2q0-fill" data-item-order="999813382" data-item-id="4.cu_sy_1hd7kljdmp2q0" data-item-class="Part Indexed Fill Stroke ColorStrokeBlack" data-item-index="4" data-renderer-id="0" transform="translate(193.99951171875, 307.2342529296875)"><g id="4.cu_sy_1hd7kljdmp2q0-fill" stroke="none" fill="url(#gradient-fd8480-377457365)"><g><path d="M 10 76.7664C 10 148.61 45.0747 212.261 99.0344 251.53L 148.448 183.594C 130.947 170.867 116.694 153.945 107.1666 134.304L 141.863 123.031C 136.138 112.64 132.281 101.0759 130.746 88.79L 96.0494 100.0637C 94.7027 92.5012 94 84.7158 94 76.7664C 94 62.53 96.2537 48.82 100.4239 35.9737L 20.5165 10C 13.6896 31.0254 10 53.465 10 76.7664Z"></path></g></g></g><g id="g-root-3.cu_sy_1hd7kljdmp2pz-fill" data-item-order="999813384" data-item-id="3.cu_sy_1hd7kljdmp2pz" data-item-class="Part Indexed Fill Stroke ColorStrokeBlack" data-item-index="3" data-renderer-id="0" transform="translate(283.0335693359375, 468.315673828125)"><g id="3.cu_sy_1hd7kljdmp2pz-fill" stroke="none" fill="url(#gradient-fba659-170788768)"><g><path d="M 136.966 11.6848C 143.119 11.6848 149.136 11.1061 154.966 10.000061L 154.966 46.4668C 177.039 43.4571 197.375 34.9912 214.571 22.4727L 263.966 90.4222C 228.321 116.374 184.432 131.684 136.966 131.684C 89.5156 131.684 45.6388 116.383 10 90.4472L 59.414 22.5115C 76.5993 35.0089 96.9166 43.4604 118.966 46.4668L 118.966 10C 124.797 11.106 130.814 11.6848 136.966 11.6848Z"></path></g></g></g><g id="g-root-2.cu_sy_1lt12pzdmp1xq-fill" data-item-order="999813386" data-item-id="2.cu_sy_1lt12pzdmp1xq" data-item-class="Part Indexed Fill Stroke ColorStrokeBlack" data-item-index="2" data-renderer-id="0" transform="translate(487.605224609375, 307.2301025390625)"><g id="2.cu_sy_1lt12pzdmp1xq-fill" stroke="none" fill="url(#gradient-ffeb38-392015901)"><g><path d="M 148.394 76.7698C 148.394 148.597 113.335 212.237 59.3949 251.508L 10 183.558C 27.4766 170.836 41.7104 153.928 51.2279 134.307L 16.5317 123.033C 22.2571 112.643 26.1137 101.0788 27.6488 88.793L 62.345 100.0664C 63.6916 92.5041 64.3943 84.719 64.3943 76.7698C 64.3943 62.5337 62.1407 48.824 57.9707 35.978L 137.877 10C 144.704 31.0264 148.394 53.4672 148.394 76.7698Z"></path></g></g></g><g id="g-root-1.cu_sy_1lt12pzdmp1xp-fill" data-item-order="999813388" data-item-id="1.cu_sy_1lt12pzdmp1xp" data-item-class="Part Indexed Indexed_1 Fill Stroke ColorStrokeBlack" data-item-index="1" data-renderer-id="0" transform="translate(409.99951171875, 157.9998779296875)"><g id="1.cu_sy_1lt12pzdmp1xp-fill" stroke="none" fill="url(#gradient-65e5a8-188701211)"><g><path d="M 135.577 185.208L 215.483 159.23C 187.357 72.6154 105.9908 10 10 10L 10.0004 94C 32.5376 94 53.7557 99.6481 72.3163 109.6061L 50.8784 139.113C 61.8891 144.302 71.754 151.523 79.9896 160.292L 101.4257 130.787C 116.919 145.668 128.787 164.293 135.577 185.208Z"></path></g></g></g><g id="g-root-0.cu_sy_1lt12pzdmp1xo-fill" data-item-order="999813390" data-item-id="0.cu_sy_1lt12pzdmp1xo" data-item-class="Part Indexed_0 Fill Stroke ColorFillBlack ColorStrokeBlack" data-item-index="0" data-renderer-id="0" transform="translate(314, 278)"><defs><linearGradient id="gradient-f783c9-143094716" x2="0" y2="1"><stop offset="0" stop-color="#f89cd3"></stop><stop offset="1" stop-color="#F669BE"></stop></linearGradient><linearGradient id="gradient-fd8480-377457365" x2="0" y2="1"><stop offset="0" stop-color="#fd9e9a"></stop><stop offset="1" stop-color="#FD6A65"></stop></linearGradient><linearGradient id="gradient-fba659-170788768" x2="0" y2="1"><stop offset="0" stop-color="#fcb778"></stop><stop offset="1" stop-color="#F99539"></stop></linearGradient><linearGradient id="gradient-ffeb38-392015901" x2="0" y2="1"><stop offset="0" stop-color="#fff066"></stop><stop offset="1" stop-color="#FFE60A"></stop></linearGradient><linearGradient id="gradient-65e5a8-188701211" x2="0" y2="1"><stop offset="0" stop-color="#85eaba"></stop><stop offset="1" stop-color="#44E095"></stop></linearGradient><linearGradient id="gradient-999999-232777082" x2="0" y2="1"><stop offset="0" stop-color="#cccccc"></stop><stop offset="1" stop-color="#666666"></stop></linearGradient></defs><g id="0.cu_sy_1lt12pzdmp1xo-fill" stroke="none" fill="url(#gradient-999999-232777082)"><g><path d="M 202 106C 202 159.019 159.019 202 106 202C 52.9807 202 10 159.019 10 106C 10 52.9807 52.9807 10 106 10C 159.019 10 202 52.9807 202 106Z"></path></g></g></g><g id="g-root-1_13ymosndmqi2u-fill" data-item-order="1000000000" data-item-id="1_13ymosndmqi2u" data-item-class="Icon Stroke Indexed InsideFill InsideColorFill ColorStrokeBlack" data-item-index="5" data-renderer-id="0" transform="translate(284, 212)"></g><g id="g-root-1_dcc553dmqi2y-fill" data-item-order="1000000000" data-item-id="1_dcc553dmqi2y" data-item-class="Icon Stroke Indexed Indexed_1 InsideFill InsideColorFill ColorStrokeBlack" data-item-index="1" data-renderer-id="0" transform="translate(488, 212)"></g><g id="g-root-tx_gai_1lua0w7dmp43z-fill" data-item-order="1000000000" data-item-id="tx_gai_1lua0w7dmp43z" data-item-class="Label Stroke Indexed Indexed_1 ColorStrokeBlack" data-item-index="1" data-renderer-id="0" transform="translate(530, 98)"><g id="tx_gai_1lua0w7dmp43z-fill" stroke="none" fill="#484848"><g><text style="font: 20px Roboto, sans-serif; white-space: pre;"><tspan x="15.47" y="34" dominant-baseline="ideographic">GAI 技术在实际应</tspan><tspan x="14" y="58" dominant-baseline="ideographic">用中已经成熟并得</tspan><tspan x="54" y="82" dominant-baseline="ideographic">到验证。</tspan></text></g></g></g><g id="g-root-tx_gai_4mhafdmp2q3-fill" data-item-order="1000000000" data-item-id="tx_gai_4mhafdmp2q3" data-item-class="Label Stroke Indexed ColorStrokeBlack" data-item-index="5" data-renderer-id="0" transform="translate(122, 98)"><g id="tx_gai_4mhafdmp2q3-fill" stroke="none" fill="#484848"><g><text style="font: 20px Roboto, sans-serif; white-space: pre;"><tspan x="15.47" y="34" dominant-baseline="ideographic">GAI 满足了各个行</tspan><tspan x="24" y="58" dominant-baseline="ideographic">业的实际市场需</tspan><tspan x="74" y="82" dominant-baseline="ideographic">求。</tspan></text></g></g></g><g id="g-root-tx__1cz9hqfdmp2is-fill" data-item-order="1000000000" data-item-id="tx__1cz9hqfdmp2is" data-item-class="Label Stroke Indexed Indexed_1" data-item-index="1" data-renderer-id="0" transform="translate(560, 62)"><g id="tx__1cz9hqfdmp2is-fill" stroke="none" fill="#3bc482"><g><text style="font: bold 20px Roboto, sans-serif; white-space: pre;"><tspan x="14" y="34" dominant-baseline="ideographic">技术成熟度</tspan></text></g></g></g><g id="g-root-1_18eg6x3dmqhal-fill" data-item-order="1000000000" data-item-id="1_18eg6x3dmqhal" data-item-class="Icon Stroke InsideFill InsideColorFill InsideBlackFill ColorStrokeBlack" data-item-index="none" data-renderer-id="0" transform="translate(362, 326)"></g><g id="g-root-tx__1hegirrdmp4w9-fill" data-item-order="1000000000" data-item-id="tx__1hegirrdmp4w9" data-item-class="Label Stroke Indexed" data-item-index="4" data-renderer-id="0" transform="translate(44, 386)"><g id="tx__1hegirrdmp4w9-fill" stroke="none" fill="#e15e5a"><g><text style="font: bold 20px Roboto, sans-serif; white-space: pre;"><tspan x="12" y="34" dominant-baseline="ideographic">监管环境</tspan></text></g></g></g><g id="g-root-tx__1upx153dmp3b9-fill" data-item-order="1000000000" data-item-id="tx__1upx153dmp3b9" data-item-class="Label Stroke Indexed ColorStrokeBlack" data-item-index="3" data-renderer-id="0" transform="translate(326, 650)"><g id="tx__1upx153dmp3b9-fill" stroke="none" fill="#484848"><g><text style="font: 20px Roboto, sans-serif; white-space: pre;"><tspan x="14" y="34" dominant-baseline="ideographic">投资者现在更加理</tspan><tspan x="24" y="58" dominant-baseline="ideographic">性，关注实际业</tspan><tspan x="74" y="82" dominant-baseline="ideographic">绩。</tspan></text></g></g></g><g id="g-root-tx_ai_1upx153dmp3b8-fill" data-item-order="1000000000" data-item-id="tx_ai_1upx153dmp3b8" data-item-class="Label Stroke Indexed ColorStrokeBlack" data-item-index="4" data-renderer-id="0" transform="translate(2, 422)"><g id="tx_ai_1upx153dmp3b8-fill" stroke="none" fill="#484848"><g><text style="font: 20px Roboto, sans-serif; white-space: pre;"><tspan x="14" y="34" dominant-baseline="ideographic">各国政府积极监管</tspan><tspan x="19.8" y="58" dominant-baseline="ideographic">并指导 AI 发展。</tspan></text></g></g></g><g id="g-root-1_qnsnifdmqghz-fill" data-item-order="1000000000" data-item-id="1_qnsnifdmqghz" data-item-class="Icon Stroke Indexed InsideFill InsideColorFill ColorStrokeBlack" data-item-index="4" data-renderer-id="0" transform="translate(224, 410)"></g><g id="g-root-1_dcc553dmqi2x-fill" data-item-order="1000000000" data-item-id="1_dcc553dmqi2x" data-item-class="Icon Stroke Indexed InsideFill InsideColorFill ColorStrokeBlack" data-item-index="2" data-renderer-id="0" transform="translate(548, 410)"></g><g id="g-root-tx_ai_1lua0w7dmp43y-fill" data-item-order="1000000000" data-item-id="tx_ai_1lua0w7dmp43y" data-item-class="Label Stroke Indexed ColorStrokeBlack" data-item-index="2" data-renderer-id="0" transform="translate(650, 422)"><g id="tx_ai_1lua0w7dmp43y-fill" stroke="none" fill="#484848"><g><text style="font: 20px Roboto, sans-serif; white-space: pre;"><tspan x="12.28" y="34" dominant-baseline="ideographic">AI 公司已经建立了</tspan><tspan x="14" y="58" dominant-baseline="ideographic">可持续和盈利的商</tspan><tspan x="54" y="82" dominant-baseline="ideographic">业策略。</tspan></text></g></g></g><g id="g-root-tx__1cz9hqfdmp2iq-fill" data-item-order="1000000000" data-item-id="tx__1cz9hqfdmp2iq" data-item-class="Label Stroke Indexed" data-item-index="5" data-renderer-id="0" transform="translate(164, 62)"><g id="tx__1cz9hqfdmp2iq-fill" stroke="none" fill="#da5da8"><g><text style="font: bold 20px Roboto, sans-serif; white-space: pre;"><tspan x="12" y="34" dominant-baseline="ideographic">市场需求</tspan></text></g></g></g><g id="g-root-bear_m7z5dzdmqha8-fill" data-item-order="1000000000" data-item-id="bear_m7z5dzdmqha8" data-item-class="Icon Stroke Indexed InsideFill InsideColorFill ColorStrokeBlack" data-item-index="3" data-renderer-id="0" transform="translate(386, 524)"></g><g id="g-root-tx__1cz9hqfdmp2ir-fill" data-item-order="1000000000" data-item-id="tx__1cz9hqfdmp2ir" data-item-class="Label Stroke Indexed" data-item-index="3" data-renderer-id="0" transform="translate(338, 614)"><g id="tx__1cz9hqfdmp2ir-fill" stroke="none" fill="#dd8433"><g><text style="font: bold 20px Roboto, sans-serif; white-space: pre;"><tspan x="12" y="34" dominant-baseline="ideographic">投资者的成熟度</tspan></text></g></g></g><g id="g-root-tx_gai_1hd7kljdmp2q2-fill" data-item-order="1000000000" data-item-id="tx_gai_1hd7kljdmp2q2" data-item-class="Label Stroke Title ColorFillBlack ColorStrokeBlack" data-item-index="none" data-renderer-id="0" transform="translate(326, 2)"><g id="tx_gai_1hd7kljdmp2q2-fill" stroke="none" fill="#484848"><g><text style="font: bold 20px Roboto, sans-serif; white-space: pre;"><tspan x="15.05" y="34" dominant-baseline="ideographic">GAI 与互联网泡沫</tspan></text></g></g></g><g id="g-root-tx__1hegirrdmp4w8-fill" data-item-order="1000000000" data-item-id="tx__1hegirrdmp4w8" data-item-class="Label Stroke Indexed" data-item-index="2" data-renderer-id="0" transform="translate(692, 386)"><g id="tx__1hegirrdmp4w8-fill" stroke="none" fill="#e3cd09"><g><text style="font: bold 20px Roboto, sans-serif; white-space: pre;"><tspan x="12" y="34" dominant-baseline="ideographic">商业模式</tspan></text></g></g></g><g id="g-root-5.cu_sy_1hd7kljdmp2q1-stroke" data-item-order="999813380" data-item-id="5.cu_sy_1hd7kljdmp2q1" data-item-class="Part Indexed Fill Stroke ColorStrokeBlack" data-item-index="5" data-renderer-id="0" transform="translate(204.5164794921875, 158.0001220703125)"><g id="5.cu_sy_1hd7kljdmp2q1-stroke" fill="none" stroke-linecap="round" stroke-linejoin="round" stroke-miterlimit="4" stroke="#484848" stroke-width="2"><g><path d="M 215.4834 10C 119.4913 10 38.1242 72.6171 10 159.2335L 89.9073 185.2072C 96.6966 164.2925 108.5656 145.6673 124.0586 130.787L 145.4949 160.2915C 153.7305 151.5227 163.5954 144.3021 174.6061 139.1128L 153.1681 109.6059C 171.7287 99.6481 192.9467 94 215.4839 94L 215.4834 10Z"></path></g></g></g><g id="g-root-4.cu_sy_1hd7kljdmp2q0-stroke" data-item-order="999813382" data-item-id="4.cu_sy_1hd7kljdmp2q0" data-item-class="Part Indexed Fill Stroke ColorStrokeBlack" data-item-index="4" data-renderer-id="0" transform="translate(193.99951171875, 307.2342529296875)"><g id="4.cu_sy_1hd7kljdmp2q0-stroke" fill="none" stroke-linecap="round" stroke-linejoin="round" stroke-miterlimit="4" stroke="#484848" stroke-width="2"><g><path d="M 10 76.7664C 10 148.6096 45.0747 212.2607 99.0344 251.53L 148.4483 183.5943C 130.9472 170.8674 116.694 153.9447 107.1666 134.3041L 141.8631 123.0305C 136.1378 112.6404 132.2812 101.0759 130.7461 88.79L 96.0494 100.0637C 94.7027 92.5012 94 84.7158 94 76.7664C 94 62.53 96.2537 48.82 100.4239 35.9737L 20.5165 10C 13.6896 31.0254 10 53.465 10 76.7664Z"></path></g></g></g><g id="g-root-3.cu_sy_1hd7kljdmp2pz-stroke" data-item-order="999813384" data-item-id="3.cu_sy_1hd7kljdmp2pz" data-item-class="Part Indexed Fill Stroke ColorStrokeBlack" data-item-index="3" data-renderer-id="0" transform="translate(283.0335693359375, 468.315673828125)"><g id="3.cu_sy_1hd7kljdmp2pz-stroke" fill="none" stroke-linecap="round" stroke-linejoin="round" stroke-miterlimit="4" stroke="#484848" stroke-width="2"><g><path d="M 136.9665 11.6848C 143.1187 11.6848 149.1358 11.106 154.9663 10.0001L 154.9663 46.4668C 177.0387 43.4571 197.3749 34.9912 214.5714 22.4727L 263.9663 90.4222C 228.3214 116.3736 184.4316 131.6838 136.966 131.6838C 89.5156 131.6838 45.6388 116.3835 10 90.4472L 59.414 22.5115C 76.5993 35.0089 96.9166 43.4604 118.9663 46.4668L 118.9663 10C 124.7969 11.106 130.8141 11.6848 136.9665 11.6848Z"></path></g></g></g><g id="g-root-2.cu_sy_1lt12pzdmp1xq-stroke" data-item-order="999813386" data-item-id="2.cu_sy_1lt12pzdmp1xq" data-item-class="Part Indexed Fill Stroke ColorStrokeBlack" data-item-index="2" data-renderer-id="0" transform="translate(487.605224609375, 307.2301025390625)"><g id="2.cu_sy_1lt12pzdmp1xq-stroke" fill="none" stroke-linecap="round" stroke-linejoin="round" stroke-miterlimit="4" stroke="#484848" stroke-width="2"><g><path d="M 148.3943 76.7698C 148.3943 148.5975 113.3347 212.2366 59.3949 251.5079L 10 183.5583C 27.4766 170.8358 41.7104 153.9276 51.2279 134.3069L 16.5317 123.0334C 22.2571 112.6432 26.1137 101.0788 27.6488 88.793L 62.345 100.0664C 63.6916 92.5041 64.3943 84.719 64.3943 76.7698C 64.3943 62.5337 62.1407 48.824 57.9707 35.978L 137.8766 10C 144.7042 31.0264 148.3943 53.4672 148.3943 76.7698Z"></path></g></g></g><g id="g-root-1.cu_sy_1lt12pzdmp1xp-stroke" data-item-order="999813388" data-item-id="1.cu_sy_1lt12pzdmp1xp" data-item-class="Part Indexed Indexed_1 Fill Stroke ColorStrokeBlack" data-item-index="1" data-renderer-id="0" transform="translate(409.99951171875, 157.9998779296875)"><g id="1.cu_sy_1lt12pzdmp1xp-stroke" fill="none" stroke-linecap="round" stroke-linejoin="round" stroke-miterlimit="4" stroke="#484848" stroke-width="2"><g><path d="M 135.5767 185.2079L 215.4826 159.2298C 187.3573 72.6154 105.9908 10 10 10L 10.0004 94C 32.5376 94 53.7557 99.6481 72.3163 109.6061L 50.8784 139.1129C 61.8891 144.3022 71.754 151.5229 79.9896 160.2916L 101.4257 130.7874C 116.9186 145.6677 128.7875 164.2931 135.5767 185.2079Z"></path></g></g></g><g id="g-root-0.cu_sy_1lt12pzdmp1xo-stroke" data-item-order="999813390" data-item-id="0.cu_sy_1lt12pzdmp1xo" data-item-class="Part Indexed_0 Fill Stroke ColorFillBlack ColorStrokeBlack" data-item-index="0" data-renderer-id="0" transform="translate(314, 278)"><g id="0.cu_sy_1lt12pzdmp1xo-stroke" fill="none" stroke-linecap="round" stroke-linejoin="round" stroke-miterlimit="4" stroke="#484848" stroke-width="2"><g><path d="M 202 106C 202 159.0193 159.0193 202 106 202C 52.9807 202 10 159.0193 10 106C 10 52.9807 52.9807 10 106 10C 159.0193 10 202 52.9807 202 106Z"></path></g></g></g><g id="g-root-1_13ymosndmqi2u-stroke" data-item-order="1000000000" data-item-id="1_13ymosndmqi2u" data-item-class="Icon Stroke Indexed InsideFill InsideColorFill ColorStrokeBlack" data-item-index="5" data-renderer-id="0" transform="translate(284, 212)"><g id="1_13ymosndmqi2u-stroke" fill="none" stroke-linecap="round" stroke-linejoin="round" stroke-miterlimit="4" stroke="#484848" stroke-width="2"><g><path d="M 15 43L 15 26.676001M 53 26.676001L 53 43M 51.764 11L 16.236 11C 15.478668 11.000404 14.786528 11.428541 14.448 12.106L 11 19L 57 19L 53.551998 12.106C 53.213474 11.428541 52.521332 11.000404 51.764 11ZM 57 21C 57.086121 23.412872 55.64846 25.620159 53.406738 26.516848C 51.16502 27.413536 48.601685 26.806646 47 25C 45.686481 27.221279 43.392712 28.683304 40.824547 28.936169C 38.256378 29.189035 35.721516 28.202444 34 26.280001C 32.278481 28.202444 29.743618 29.189035 27.175453 28.936169C 24.607288 28.683304 22.313519 27.221279 21 25C 19.396399 26.801754 16.835665 27.405405 14.596159 26.509604C 12.356651 25.6138 10.918639 23.410648 11 21L 11 19L 57 19ZM 21 25L 21 19L 23 11M 34 26.292L 34 19L 34 11M 47 25L 47 19L 45 11M 13 43L 55 43C 55 43 57 43 57 45L 57 51C 57 51 57 53 55 53L 13 53C 13 53 11 53 11 51L 11 45C 11 45 11 43 13 43M 15 53L 15 57M 53 53L 53 57M 19 40C 19 41.656853 20.343147 43 22 43C 23.656855 43 25 41.656853 25 40C 25 38.343147 23.656855 37 22 37C 20.343147 37 19 38.343147 19 40M 25 40C 25 41.656853 26.343145 43 28 43C 29.656855 43 31 41.656853 31 40C 31 38.343147 29.656855 37 28 37C 26.343145 37 25 38.343147 25 40M 37 40C 37 41.656853 38.343147 43 40 43C 41.656853 43 43 41.656853 43 40C 43 38.343147 41.656853 37 40 37C 38.343147 37 37 38.343147 37 40M 45.826 37C 46.26915 35.756165 45.846935 34.368828 44.786011 33.582733C 43.725082 32.796638 42.274918 32.796638 41.213993 33.582733C 40.153069 34.368828 39.73085 35.756165 40.174004 37M 43 40C 43 41.656853 44.343147 43 46 43C 47.656857 43 49 41.656853 49 40C 49 38.343147 47.656857 37 46 37C 44.343147 37 43 38.343147 43 40"></path></g></g></g><g id="g-root-1_dcc553dmqi2y-stroke" data-item-order="1000000000" data-item-id="1_dcc553dmqi2y" data-item-class="Icon Stroke Indexed Indexed_1 InsideFill InsideColorFill ColorStrokeBlack" data-item-index="1" data-renderer-id="0" transform="translate(488, 212)"><g id="1_dcc553dmqi2y-stroke" fill="none" stroke-linecap="round" stroke-linejoin="round" stroke-miterlimit="4" stroke="#484848" stroke-width="2"><g><path d="M 57 52.776001C 52 53.818001 48.880001 48.818001 48.880001 48.818001L 48.880001 48.818001C 47.308384 51.316471 44.588852 52.860619 41.638 52.93C 38.839348 52.878094 36.292892 51.300655 35 48.818001L 35 48.818001C 33.113838 51.271431 30.246746 52.774426 27.156 52.93C 24.226452 52.791054 21.538692 51.263683 19.919998 48.817997L 19.92 48.818001C 19.92 48.818001 15.92 53.902 11.01 52.858002M 52 28.969999C 42.61116 28.969999 35 36.581161 35 45.970001C 44.38884 45.970001 52 38.358841 52 28.969999ZM 39.473999 34.48C 41.853859 27.6705 40.123604 20.09967 35.021999 15C 29.901752 20.120562 28.181259 27.72855 30.6 34.554001M 18 28.969999C 27.388842 28.969999 35 36.581161 35 45.970001C 25.61116 45.970001 18 38.358841 18 28.969999ZM 35.001999 49L 35.001999 44.970001"></path></g></g></g><g id="g-root-tx_gai_1lua0w7dmp43z-stroke" data-item-order="1000000000" data-item-id="tx_gai_1lua0w7dmp43z" data-item-class="Label Stroke Indexed Indexed_1 ColorStrokeBlack" data-item-index="1" data-renderer-id="0" transform="translate(530, 98)"></g><g id="g-root-tx_gai_4mhafdmp2q3-stroke" data-item-order="1000000000" data-item-id="tx_gai_4mhafdmp2q3" data-item-class="Label Stroke Indexed ColorStrokeBlack" data-item-index="5" data-renderer-id="0" transform="translate(122, 98)"></g><g id="g-root-tx__1cz9hqfdmp2is-stroke" data-item-order="1000000000" data-item-id="tx__1cz9hqfdmp2is" data-item-class="Label Stroke Indexed Indexed_1" data-item-index="1" data-renderer-id="0" transform="translate(560, 62)"></g><g id="g-root-1_18eg6x3dmqhal-stroke" data-item-order="1000000000" data-item-id="1_18eg6x3dmqhal" data-item-class="Icon Stroke InsideFill InsideColorFill InsideBlackFill ColorStrokeBlack" data-item-index="none" data-renderer-id="0" transform="translate(362, 326)"><g id="1_18eg6x3dmqhal-stroke" fill="none" stroke-linecap="round" stroke-linejoin="round" stroke-miterlimit="4" stroke="#484848" stroke-width="2"><g><path d="M 33.799999 91.444C 38.040874 90.738121 41.621407 87.902405 43.279999 83.935997M 19.684 44.183998C 27.86669 45.618896 34.896675 50.821739 38.66 58.228001M 33.132 50.916L 40.304001 45.535999M 50 12.691999C 49.923111 16.701862 49.199123 20.672989 47.856003 24.452M 42 28C 42 30.209139 43.790859 32 46 32C 48.209141 32 50 30.209139 50 28C 50 25.790861 48.209141 24 46 24C 43.790859 24 42 25.790861 42 28ZM 66 36C 66 38.209137 67.790863 40 70 40C 72.209137 40 74 38.209137 74 36C 74 33.790863 72.209137 32 70 32C 67.790863 32 66 33.790863 66 36ZM 80 52C 80 54.209141 81.790863 56 84 56C 86.209137 56 88 54.209141 88 52C 88 49.790859 86.209137 48 84 48C 81.790863 48 80 49.790859 80 52ZM 66 66C 66 68.209137 67.790863 70 70 70C 72.209137 70 74 68.209137 74 66C 74 63.790859 72.209137 62 70 62C 67.790863 62 66 63.790859 66 66ZM 40 44C 40 46.209141 41.790863 48 44 48C 46.209141 48 48 46.209141 48 44C 48 41.790863 46.209141 40 44 40C 41.790863 40 40 41.790863 40 44ZM 36 62C 36 64.209137 37.790863 66 40 66C 42.209141 66 44 64.209137 44 62C 44 59.790859 42.209141 58 40 58C 37.790863 58 36 59.790859 36 62ZM 104 58C 104.016022 52.371658 101.10601 47.139393 96.316002 44.184002C 96.587067 43.002941 96.727913 41.795738 96.736 40.584C 96.816147 32.266502 90.485756 25.28635 82.199997 24.556C 82.282623 21.280796 81.049637 18.109016 78.776611 15.749545C 76.503578 13.390073 73.380005 12.039617 70.104004 12C 64.924454 12.296537 60.302902 15.351099 58 20C 55.697098 15.351099 51.075546 12.296537 45.896 12C 42.619995 12.039617 39.496422 13.390073 37.223389 15.749545C 34.950359 18.109016 33.717373 21.280796 33.799999 24.556C 25.511148 25.286583 19.179649 32.271439 19.264 40.591999C 19.265526 41.803001 19.399658 43.010197 19.664 44.191998C 14.88658 47.15926 11.981133 52.384087 11.981133 58.007999C 11.981133 63.631912 14.88658 68.856735 19.664 71.823997C 19.399658 73.005798 19.265526 74.212997 19.264 75.423996C 19.188053 83.738434 25.517338 90.713882 33.799999 91.444C 33.717373 94.7192 34.950359 97.890984 37.223389 100.25045C 39.496422 102.609924 42.619995 103.960381 45.896 104C 50.672661 104.115799 55.199921 101.87162 57.999996 97.999992C 60.800076 101.87162 65.327332 104.115799 70.103996 103.999992C 73.380005 103.960381 76.503578 102.609924 78.776611 100.25045C 81.049637 97.890984 82.282623 94.7192 82.199997 91.444C 90.488846 90.713417 96.820351 83.728554 96.736 75.407997C 96.727913 74.196259 96.587067 72.989059 96.315994 71.807999C 101.103577 68.854095 104.013237 63.6255 104 58ZM 58 20L 58 66M 58 81.832001L 58 98M 94.692001 32.652L 83.599998 38.204002C 80.359627 39.826309 76.552406 39.864674 73.279999 38.307999M 70 62C 71.186089 57.050533 75.050537 53.186089 80.000008 52.000004M 82.199997 91.444C 81.096001 87.599998 79.211998 84.643997 76 84M 40 80C 40 82.209137 41.790863 84 44 84C 46.209141 84 48 82.209137 48 80C 48 77.790863 46.209141 76 44 76C 41.790863 76 40 77.790863 40 80ZM 68 84C 68 86.209137 69.790863 88 72 88C 74.209137 88 76 86.209137 76 84C 76 81.790863 74.209137 80 72 80C 69.790863 80 68 81.790863 68 84Z"></path></g></g></g><g id="g-root-tx__1hegirrdmp4w9-stroke" data-item-order="1000000000" data-item-id="tx__1hegirrdmp4w9" data-item-class="Label Stroke Indexed" data-item-index="4" data-renderer-id="0" transform="translate(44, 386)"></g><g id="g-root-tx__1upx153dmp3b9-stroke" data-item-order="1000000000" data-item-id="tx__1upx153dmp3b9" data-item-class="Label Stroke Indexed ColorStrokeBlack" data-item-index="3" data-renderer-id="0" transform="translate(326, 650)"></g><g id="g-root-tx_ai_1upx153dmp3b8-stroke" data-item-order="1000000000" data-item-id="tx_ai_1upx153dmp3b8" data-item-class="Label Stroke Indexed ColorStrokeBlack" data-item-index="4" data-renderer-id="0" transform="translate(2, 422)"></g><g id="g-root-1_qnsnifdmqghz-stroke" data-item-order="1000000000" data-item-id="1_qnsnifdmqghz" data-item-class="Icon Stroke Indexed InsideFill InsideColorFill ColorStrokeBlack" data-item-index="4" data-renderer-id="0" transform="translate(224, 410)"><g id="1_qnsnifdmqghz-stroke" fill="none" stroke-linecap="round" stroke-linejoin="round" stroke-miterlimit="4" stroke="#484848" stroke-width="2"><g><path d="M 34 22L 34 52M 28.162001 52L 39.784 52M 12.002 33.996002L 19 18L 25.973999 33.996002M 31.17 18L 16 18M 26 34C 26 37.865993 22.865993 41 19 41C 15.134007 41 12 37.865993 12 34ZM 55.998001 33.996002L 49 18L 42.026001 33.996002M 36.830002 18L 52 18M 42 34C 42 37.865993 45.13401 41 49 41C 52.865993 41 56 37.865993 56 34ZM 31 19C 31 20.656855 32.343147 22 34 22C 35.656853 22 37 20.656855 37 19C 37 17.343145 35.656853 16 34 16C 32.343147 16 31 17.343145 31 19Z"></path></g></g></g><g id="g-root-1_dcc553dmqi2x-stroke" data-item-order="1000000000" data-item-id="1_dcc553dmqi2x" data-item-class="Icon Stroke Indexed InsideFill InsideColorFill ColorStrokeBlack" data-item-index="2" data-renderer-id="0" transform="translate(548, 410)"><g id="1_dcc553dmqi2x-stroke" fill="none" stroke-linecap="round" stroke-linejoin="round" stroke-miterlimit="4" stroke="#484848" stroke-width="2"><g><path d="M 28.062 39.938C 24.162493 43.839989 17.837507 43.839989 13.938 39.938L 12 38L 30 38ZM 54.062 39.938C 50.162495 43.839989 43.837509 43.839989 39.938 39.938L 38 38L 56 38ZM 21 42.863998C 20.938053 45.282139 22.520025 47.43586 24.846001 48.099998L 28.464001 49.133999M 47 42.863998C 47.062191 45.281578 45.481178 47.435108 43.155998 48.099998L 39.538002 49.133999M 16.5 16.498001C 16.5 18.98328 18.514719 20.998001 21 20.998001C 23.485281 20.998001 25.5 18.98328 25.5 16.498001C 25.5 14.012718 23.485281 11.998 21 11.998C 18.514719 11.998 16.5 14.012718 16.5 16.498001ZM 21 23C 15 23 15 27.686001 15 31L 15 31L 18 31L 19 38L 23 38L 24 31L 27 31L 27 31C 27 27.681999 27 23 21 23ZM 42.158001 54.481998L 42.186001 54.534C 42.349358 54.844166 42.338375 55.217224 42.157055 55.517242C 41.975735 55.817261 41.650555 56.000427 41.299999 56L 26.700001 56C 26.348854 56.000797 26.02302 55.81736 25.841576 55.516727C 25.66013 55.216091 25.649662 54.842316 25.813999 54.532001L 25.841999 54.48L 29.452 47.119999C 29.789072 46.433994 30.487659 46.000095 31.252001 46.001999L 36.760002 46.001999C 37.524338 46.000095 38.222927 46.433994 38.559998 47.119999ZM 52 18L 48.599998 18C 47.448231 17.992489 46.428791 18.743656 46.094772 19.845955C 45.760757 20.948254 46.191784 22.138935 47.153999 22.771999L 50.834 25.226C 51.796238 25.857189 52.229076 27.045841 51.898022 28.147978C 51.566963 29.250114 50.550777 30.00351 49.399998 30L 46 30M 50 18.001999L 50 16.001999M 48 32.001999L 48 30.002001"></path></g></g></g><g id="g-root-tx_ai_1lua0w7dmp43y-stroke" data-item-order="1000000000" data-item-id="tx_ai_1lua0w7dmp43y" data-item-class="Label Stroke Indexed ColorStrokeBlack" data-item-index="2" data-renderer-id="0" transform="translate(650, 422)"></g><g id="g-root-tx__1cz9hqfdmp2iq-stroke" data-item-order="1000000000" data-item-id="tx__1cz9hqfdmp2iq" data-item-class="Label Stroke Indexed" data-item-index="5" data-renderer-id="0" transform="translate(164, 62)"></g><g id="g-root-bear_m7z5dzdmqha8-stroke" data-item-order="1000000000" data-item-id="bear_m7z5dzdmqha8" data-item-class="Icon Stroke Indexed InsideFill InsideColorFill ColorStrokeBlack" data-item-index="3" data-renderer-id="0" transform="translate(386, 524)"><g id="bear_m7z5dzdmqha8-stroke" fill="none" stroke-linecap="round" stroke-linejoin="round" stroke-miterlimit="4" stroke="#484848" stroke-width="2"><g><path d="M 37.540001 40.360001C 38.080025 41.181274 38.326698 42.160923 38.239998 43.139999C 38.238705 44.711205 37.62114 46.219208 36.52 47.34L 37.860001 51.860001C 37.939095 52.162571 37.880539 52.484631 37.699997 52.739998C 37.509129 52.989376 37.214024 53.136929 36.900002 53.139999L 32 53.139999C 31.535612 53.140297 31.134773 52.814617 31.040001 52.360001L 29.040001 44.18M 36.239998 35.139999C 37.235523 36.773041 38.606956 38.144478 40.240002 39.139999C 42.901012 40.457611 45.830647 41.142105 48.799999 41.139999C 49.077187 41.144714 49.344349 41.036407 49.540001 40.84L 52.139999 38.239998C 52.369774 37.997646 52.466358 37.658161 52.398563 37.33115C 52.330769 37.004143 52.107185 36.731033 51.799999 36.599998C 49.405602 35.81176 47.246635 34.436623 45.52 32.599998C 43.779999 29.959999 46.240002 26.200001 46.240002 26.200001C 48.757801 25.21912 51.116665 23.871201 53.239998 22.199999C 55.240002 20.200001 55.240002 16.200001 54.240002 16.200001L 45.740002 16.200001C 44.944767 15.097675 43.497559 14.684189 42.240002 15.200001C 40.239998 16.200001 42.240002 17.200001 42.240002 17.200001C 39.279999 18.68 36.080002 18.92 33.239998 20.200001C 28.9 22.200001 28.58 24.799999 25.119999 25.380001C 21.465282 25.991673 18.239647 28.1203 16.24 31.24M 16.42 30.879999C 15.762426 31.682709 14.777647 32.145702 13.74 32.139999L 11.24 32.139999C 11.24 32.139999 10.24 38.139999 14.24 38.139999C 14.23493 42.172981 16.10478 45.979198 19.299999 48.439999L 20.08 52.439999C 20.167755 52.910038 20.581911 53.248123 21.060001 53.240002L 26.120001 53.240002C 26.672285 53.240002 27.120001 52.792286 27.120001 52.240002L 27.120001 46.240002C 28.536163 44.972324 29.313387 43.139248 29.240002 41.240002C 29.239567 39.355019 28.474586 37.550819 27.119999 36.239998M 28.559999 44.259998C 30.637184 44.025551 32.663094 43.458298 34.559998 42.579998C 36.524292 41.701157 38.122105 40.166977 39.079998 38.239998M 45.700001 27.139999L 50.240002 27.139999C 52.069599 27.135584 53.893417 26.934427 55.68 26.540001C 56.020092 26.477468 56.36956 26.581566 56.620003 26.82C 56.853428 27.072796 56.943668 27.426243 56.860001 27.76C 56.587116 29.305357 56.038372 30.789 55.239998 32.139999C 54.240002 33.139999 47.240002 34.139999 47.240002 34.139999"></path></g></g></g><g id="g-root-tx__1cz9hqfdmp2ir-stroke" data-item-order="1000000000" data-item-id="tx__1cz9hqfdmp2ir" data-item-class="Label Stroke Indexed" data-item-index="3" data-renderer-id="0" transform="translate(338, 614)"></g><g id="g-root-tx_gai_1hd7kljdmp2q2-stroke" data-item-order="1000000000" data-item-id="tx_gai_1hd7kljdmp2q2" data-item-class="Label Stroke Title ColorFillBlack ColorStrokeBlack" data-item-index="none" data-renderer-id="0" transform="translate(326, 2)"></g><g id="g-root-tx__1hegirrdmp4w8-stroke" data-item-order="1000000000" data-item-id="tx__1hegirrdmp4w8" data-item-class="Label Stroke Indexed" data-item-index="2" data-renderer-id="0" transform="translate(692, 386)"></g></g></g></svg>