<?xml version="1.0" encoding="utf-8" standalone="yes"?>
<!DOCTYPE svg PUBLIC "-//W3C//DTD SVG 1.1//EN" "http://www.w3.org/Graphics/SVG/1.1/DTD/svg11.dtd">
<svg width="558" height="264" viewBox="0 0 558 264" style="fill:none;stroke:none;fill-rule:evenodd;clip-rule:evenodd;stroke-linecap:round;stroke-linejoin:round;stroke-miterlimit:1.5;" version="1.1" xmlns="http://www.w3.org/2000/svg" xmlns:xlink="http://www.w3.org/1999/xlink"><style id="fontImports">@import url("https://fonts.googleapis.com/css2?family=Roboto:wght@400;700&amp;display=block");</style><rect id="" x="0" y="0" width="558" height="264" style="fill: #ffffff;"></rect><g id="items" style="isolation: isolate"><g id="blend" style="mix-blend-mode:multiply"><g id="g-root-2.cr-2_cr_hsri87f0n0uc-fill" data-item-order="999953348" data-item-id="2.cr-2_cr_hsri87f0n0uc" data-item-class="Shape Stroke Fill Part Indexed ColorStrokeBlack" data-item-index="2" data-renderer-id="0" transform="translate(386, 62)"><g id="2.cr-2_cr_hsri87f0n0uc-fill" stroke="none" fill="url(#gradient-44d0ff-453494305)"><g><path d="M 10 64C 10 93.823377 34.176624 118 64 118C 93.823377 118 118 93.823377 118 64C 118 34.176624 93.823377 10 64 10C 34.176624 10 10 34.176624 10 64"></path></g></g></g><g id="g-root-1.cr-1_cr_hsri87f0n0ub-fill" data-item-order="999953350" data-item-id="1.cr-1_cr_hsri87f0n0ub" data-item-class="Shape Stroke Fill Part Indexed Indexed_1 ColorStrokeBlack" data-item-index="1" data-renderer-id="0" transform="translate(62, 62)"><defs><linearGradient id="gradient-44d0ff-453494305" x2="0" y2="1"><stop offset="0" stop-color="#6ddafe"></stop><stop offset="1" stop-color="#1AC6FF"></stop></linearGradient><linearGradient id="gradient-fd8480-377457365" x2="0" y2="1"><stop offset="0" stop-color="#fd9e9a"></stop><stop offset="1" stop-color="#FD6A65"></stop></linearGradient></defs><g id="1.cr-1_cr_hsri87f0n0ub-fill" stroke="none" fill="url(#gradient-fd8480-377457365)"><g><path d="M 10 64C 10 93.823377 34.176624 118 64 118C 93.823377 118 118 93.823377 118 64C 118 34.176624 93.823377 10 64 10C 34.176624 10 10 34.176624 10 64"></path></g></g></g><g id="g-root-tx_gai_1q6yjgnf0n3t5-fill" data-item-order="1000000000" data-item-id="tx_gai_1q6yjgnf0n3t5" data-item-class="Label Stroke Title ColorStrokeBlack" data-item-index="none" data-renderer-id="0" transform="translate(194, 2)"><g id="tx_gai_1q6yjgnf0n3t5-fill" stroke="none" fill="#484848"><g><text style="font: 20px Roboto, sans-serif; white-space: pre;"><tspan x="15.47" y="34" dominant-baseline="ideographic">GAI 与互联网泡沫</tspan></text></g></g></g><g id="g-root-ai_143lvd3f0oide-fill" data-item-order="1000000000" data-item-id="ai_143lvd3f0oide" data-item-class="Icon Stroke Indexed Indexed_1 InsideFill InsideColorFill ColorStrokeBlack" data-item-index="1" data-renderer-id="0" transform="translate(80, 80)"></g><g id="g-root-ligh_18jfdhjf0ohl4-fill" data-item-order="1000000000" data-item-id="ligh_18jfdhjf0ohl4" data-item-class="Icon Stroke Indexed Indexed_0 ColorStrokeBlack" data-item-index="0" data-renderer-id="0" transform="translate(242, 80)"></g><g id="g-root-brow_143lvd3f0oidd-fill" data-item-order="1000000000" data-item-id="brow_143lvd3f0oidd" data-item-class="Icon Stroke Indexed InsideFill InsideColorFill ColorStrokeBlack" data-item-index="2" data-renderer-id="0" transform="translate(404, 80)"></g><g id="g-root-tx_gai_4hazuvf0n2fc-fill" data-item-order="1000000000" data-item-id="tx_gai_4hazuvf0n2fc" data-item-class="Label Stroke Indexed Indexed_1 ColorFillBlack ColorStrokeBlack" data-item-index="1" data-renderer-id="0" transform="translate(92, 182)"><g id="tx_gai_4hazuvf0n2fc-fill" stroke="none" fill="#484848"><g><text style="font: bold 20px Roboto, sans-serif; white-space: pre;"><tspan x="17.54" y="34" dominant-baseline="ideographic">GAI</tspan></text></g></g></g><g id="g-root-tx__8x4hzbf0n1n2-fill" data-item-order="1000000000" data-item-id="tx__8x4hzbf0n1n2" data-item-class="Label Stroke Indexed ColorFillBlack ColorStrokeBlack" data-item-index="2" data-renderer-id="0" transform="translate(386, 182)"><g id="tx__8x4hzbf0n1n2-fill" stroke="none" fill="#484848"><g><text style="font: bold 20px Roboto, sans-serif; white-space: pre;"><tspan x="14" y="34" dominant-baseline="ideographic">互联网泡沫</tspan></text></g></g></g><g id="g-root-tx__4hazuvf0n2fb-fill" data-item-order="1000000000" data-item-id="tx__4hazuvf0n2fb" data-item-class="Label Stroke Indexed Indexed_1 ColorStrokeBlack" data-item-index="1" data-renderer-id="0" transform="translate(2, 218)"><g id="tx__4hazuvf0n2fb-fill" stroke="none" fill="#484848"><g><text style="font: 20px Roboto, sans-serif; white-space: pre;"><tspan x="14" y="34" dominant-baseline="ideographic">成熟的技术，清晰的应用</tspan></text></g></g></g><g id="g-root-tx__hsri87f0n0ud-fill" data-item-order="1000000000" data-item-id="tx__hsri87f0n0ud" data-item-class="Label Stroke Indexed ColorStrokeBlack" data-item-index="2" data-renderer-id="0" transform="translate(344, 218)"><g id="tx__hsri87f0n0ud-fill" stroke="none" fill="#484848"><g><text style="font: 20px Roboto, sans-serif; white-space: pre;"><tspan x="16" y="34" dominant-baseline="ideographic">过度炒作，风险投资</tspan></text></g></g></g><g id="g-root-2.cr-2_cr_hsri87f0n0uc-stroke" data-item-order="999953348" data-item-id="2.cr-2_cr_hsri87f0n0uc" data-item-class="Shape Stroke Fill Part Indexed ColorStrokeBlack" data-item-index="2" data-renderer-id="0" transform="translate(386, 62)"><g id="2.cr-2_cr_hsri87f0n0uc-stroke" fill="none" stroke-linecap="round" stroke-linejoin="round" stroke-miterlimit="4" stroke="#484848" stroke-width="2"><g><path d="M 10 64C 10 93.823377 34.176624 118 64 118C 93.823377 118 118 93.823377 118 64C 118 34.176624 93.823377 10 64 10C 34.176624 10 10 34.176624 10 64"></path></g></g></g><g id="g-root-1.cr-1_cr_hsri87f0n0ub-stroke" data-item-order="999953350" data-item-id="1.cr-1_cr_hsri87f0n0ub" data-item-class="Shape Stroke Fill Part Indexed Indexed_1 ColorStrokeBlack" data-item-index="1" data-renderer-id="0" transform="translate(62, 62)"><g id="1.cr-1_cr_hsri87f0n0ub-stroke" fill="none" stroke-linecap="round" stroke-linejoin="round" stroke-miterlimit="4" stroke="#484848" stroke-width="2"><g><path d="M 10 64C 10 93.823377 34.176624 118 64 118C 93.823377 118 118 93.823377 118 64C 118 34.176624 93.823377 10 64 10C 34.176624 10 10 34.176624 10 64"></path></g></g></g><g id="g-root-tx_gai_1q6yjgnf0n3t5-stroke" data-item-order="1000000000" data-item-id="tx_gai_1q6yjgnf0n3t5" data-item-class="Label Stroke Title ColorStrokeBlack" data-item-index="none" data-renderer-id="0" transform="translate(194, 2)"></g><g id="g-root-ai_143lvd3f0oide-stroke" data-item-order="1000000000" data-item-id="ai_143lvd3f0oide" data-item-class="Icon Stroke Indexed Indexed_1 InsideFill InsideColorFill ColorStrokeBlack" data-item-index="1" data-renderer-id="0" transform="translate(80, 80)"><g id="ai_143lvd3f0oide-stroke" fill="none" stroke-linecap="round" stroke-linejoin="round" stroke-miterlimit="4" stroke="#484848" stroke-width="2"><g><path d="M 38.50354 80.005302L 38.500748 80.0056L 36.484482 72.504402L 62.412098 57.611801L 39.627548 80.303497C 39.62746 80.303497 39.627399 80.303497 39.627308 80.303802C 39.260201 80.668602 38.636078 80.496696 38.50354 80.005302ZM 23.302181 11.592385L 23.30341 11.593084L 37.285778 19.63225L 22.299999 28.24576L 22.299999 12.158437C 22.299999 11.66573 22.8487 11.331085 23.302181 11.592385ZM 22.299999 49.5784L 22.299999 38.37133L 46.0924 24.705971L 55.828602 30.30871L 22.299999 49.5784ZM 72.617203 39.97765L 72.617203 39.9673L 64.634499 35.3731L 22.299999 59.7043L 22.299999 69.783096C 22.299999 70.228897 22.76869 70.575104 23.238369 70.371399L 73.368401 41.542603L 72.617203 39.97765ZM 72.617203 39.97765L 73.368401 40.4104M 72.617203 39.97765L 73.368401 40.4104M 73.368401 40.4104C 73.807602 40.663601 73.808197 41.2882 73.369598 41.542L 73.368401 40.4104Z"></path></g></g></g><g id="g-root-ligh_18jfdhjf0ohl4-stroke" data-item-order="1000000000" data-item-id="ligh_18jfdhjf0ohl4" data-item-class="Icon Stroke Indexed Indexed_0 ColorStrokeBlack" data-item-index="0" data-renderer-id="0" transform="translate(242, 80)"><g id="ligh_18jfdhjf0ohl4-stroke" fill="none" stroke-linecap="round" stroke-linejoin="round" stroke-miterlimit="4" stroke="#484848" stroke-width="2"><g><path d="M 43.7155 60.25L 41.78965 75.448456C 41.6017 76.932404 43.444153 77.732651 44.395 76.57795C 47.01955 73.3909 50.811699 68.769402 54.856899 63.833954M 69.831848 45.546398C 71.379852 43.654751 72.706451 42.033249 73.705299 40.812103C 74.506447 39.832748 73.809097 38.36335 72.543854 38.36335L 69.158348 38.36335M 25.079649 52.911999L 19.49548 52.911999C 18.223511 52.911999 17.52829 51.428951 18.342926 50.452148L 22.779266 45.132549M 35.112999 30.346449C 39.87685 24.636566 44.504349 19.091724 47.564949 15.428576C 48.525852 14.278646 50.384201 15.095304 50.190849 16.581249L 48.589302 28.888599M 40.897453 54.801849L 46.692249 35.308601C 46.978149 34.346951 46.257702 33.3811 45.254501 33.3811L 42.439301 33.3811C 41.771049 33.3811 41.18335 33.823151 40.9981 34.465149L 36.3946 50.412849C 36.289299 50.77795 35.77 50.772701 35.67205 50.405647L 31.4233 34.494099C 31.2481 33.8377 30.6535 33.3811 29.97415 33.3811L 26.994999 33.3811C 25.99645 33.3811 25.276749 34.338249 25.553949 35.297501L 31.17985 54.7687C 31.7362 56.694099 33.498852 58.019501 35.503002 58.019501L 36.584049 58.019501C 38.575451 58.019501 40.329998 56.710602 40.897453 54.801849ZM 55.995251 52.8979C 54.671501 52.8979 53.315948 52.649349 52.157799 52.296249C 51.212952 52.008099 50.137451 52.530552 49.935249 53.497299L 49.494553 55.60405C 49.356548 56.263451 49.675148 56.93755 50.312199 57.156551C 51.677353 57.6259 53.664398 58.020248 55.7164 58.020248C 62.197296 58.020248 65.500153 54.6562 65.500153 50.398453C 65.500153 47.324951 63.797348 44.9491 59.738503 43.285149C 56.776901 42.0355 55.727348 41.490551 55.727348 40.328049C 55.727348 39.259899 56.758598 38.467899 58.703651 38.467899C 59.83075 38.467899 60.802898 38.636799 61.608551 38.862099C 62.52655 39.118752 63.545498 38.638149 63.765404 37.710701L 64.243744 35.694248C 64.408752 34.998253 64.061646 34.273598 63.381096 34.053402C 62.162048 33.658901 60.618248 33.381851 58.743996 33.381851C 52.776852 33.381851 49.470402 36.687851 49.470402 40.843899C 49.470402 43.873749 51.5695 46.227848 55.602547 47.924351C 58.15675 48.945248 59.221001 49.66465 59.221001 50.874397C 59.221001 52.084152 58.112801 52.8979 55.995251 52.8979Z"></path></g></g></g><g id="g-root-brow_143lvd3f0oidd-stroke" data-item-order="1000000000" data-item-id="brow_143lvd3f0oidd" data-item-class="Icon Stroke Indexed InsideFill InsideColorFill ColorStrokeBlack" data-item-index="2" data-renderer-id="0" transform="translate(404, 80)"><g id="brow_143lvd3f0oidd-stroke" fill="none" stroke-linecap="round" stroke-linejoin="round" stroke-miterlimit="4" stroke="#484848" stroke-width="2"><g><path d="M 11.5 23.5L 71.5 23.5M 20.5 16.75C 20.085787 16.75 19.75 17.085787 19.75 17.5C 19.75 17.914213 20.085787 18.25 20.5 18.25C 20.914213 18.25 21.25 17.914213 21.25 17.5C 21.25 17.085787 20.914213 16.75 20.5 16.75L 20.5 16.75M 26.5 16.75C 26.085787 16.75 25.75 17.085787 25.75 17.5C 25.75 17.914213 26.085787 18.25 26.5 18.25C 26.914213 18.25 27.25 17.914213 27.25 17.5C 27.25 17.085787 26.914213 16.75 26.5 16.75L 26.5 16.75M 32.5 16.75C 32.085785 16.75 31.75 17.085787 31.75 17.5C 31.75 17.914213 32.085785 18.25 32.5 18.25C 32.914215 18.25 33.25 17.914213 33.25 17.5C 33.25 17.085787 32.914215 16.75 32.5 16.75L 32.5 16.75M 32.5 59.5L 17.5 59.5C 14.186292 59.5 11.5 56.813709 11.5 53.5L 11.5 17.5C 11.5 14.186292 14.186292 11.5 17.5 11.5L 65.5 11.5C 68.813713 11.5 71.5 14.186292 71.5 17.5L 71.5 35.5M 59.5 80.5C 53.5 76 50.5 67 50.5 59.5C 50.5 52 53.5 43 59.5 38.5M 59.5 80.5C 65.5 76 68.5 67 68.5 59.5C 68.5 52 65.5 43 59.5 38.5M 40.521999 50.5L 78.477997 50.5M 40.521999 68.5L 78.477997 68.5M 38.5 59.5L 80.5 59.5M 38.5 59.5C 38.500004 71.097977 47.902023 80.5 59.5 80.5C 71.097977 80.5 80.5 71.097977 80.5 59.5C 80.5 47.902023 71.097977 38.500004 59.5 38.500004C 47.902023 38.500004 38.500004 47.902023 38.500004 59.5Z"></path></g></g></g><g id="g-root-tx_gai_4hazuvf0n2fc-stroke" data-item-order="1000000000" data-item-id="tx_gai_4hazuvf0n2fc" data-item-class="Label Stroke Indexed Indexed_1 ColorFillBlack ColorStrokeBlack" data-item-index="1" data-renderer-id="0" transform="translate(92, 182)"></g><g id="g-root-tx__8x4hzbf0n1n2-stroke" data-item-order="1000000000" data-item-id="tx__8x4hzbf0n1n2" data-item-class="Label Stroke Indexed ColorFillBlack ColorStrokeBlack" data-item-index="2" data-renderer-id="0" transform="translate(386, 182)"></g><g id="g-root-tx__4hazuvf0n2fb-stroke" data-item-order="1000000000" data-item-id="tx__4hazuvf0n2fb" data-item-class="Label Stroke Indexed Indexed_1 ColorStrokeBlack" data-item-index="1" data-renderer-id="0" transform="translate(2, 218)"></g><g id="g-root-tx__hsri87f0n0ud-stroke" data-item-order="1000000000" data-item-id="tx__hsri87f0n0ud" data-item-class="Label Stroke Indexed ColorStrokeBlack" data-item-index="2" data-renderer-id="0" transform="translate(344, 218)"></g></g></g></svg>