<?xml version="1.0" encoding="utf-8" standalone="yes"?>
<!DOCTYPE svg PUBLIC "-//W3C//DTD SVG 1.1//EN" "http://www.w3.org/Graphics/SVG/1.1/DTD/svg11.dtd">
<svg width="662" height="194" viewBox="0 0 662 194" style="fill:none;stroke:none;fill-rule:evenodd;clip-rule:evenodd;stroke-linecap:round;stroke-linejoin:round;stroke-miterlimit:1.5;" version="1.1" xmlns="http://www.w3.org/2000/svg" xmlns:xlink="http://www.w3.org/1999/xlink"><style id="fontImports">@import url("https://fonts.googleapis.com/css2?family=Roboto:wght@400;700&amp;display=block");</style><g id="blend" style="mix-blend-mode:multiply"><g id="g-root-ro_1lrsagobzckqo-fill" data-item-order="-16560" data-item-id="ro_1lrsagobzckqo" data-item-class="Shape Stroke Fill" data-item-index="none" data-renderer-id="0" transform="translate(261, 33)"><g id="ro_1lrsagobzckqo-fill" stroke="none" fill="#f0f0f0"><g><path d="M 16 10L 124 10C 124 10 130 10 130 16L 130 142C 130 142 130 148 124 148L 16 148C 16 148 10 148 10 142L 10 16C 10 16 10 10 16 10"></path></g></g></g><g id="g-root-ro_me85bsbyvrwp-fill" data-item-order="-10368" data-item-id="ro_me85bsbyvrwp" data-item-class="Shape Stroke Fill" data-item-index="none" data-renderer-id="0" transform="translate(3, 3)"><g id="ro_me85bsbyvrwp-fill" stroke="none" fill="#e9fbf3"><g><path d="M 22 10L 190 10C 190 10 202 10 202 22L 202 52C 202 52 202 64 190 64L 22 64C 22 64 10 64 10 52L 10 22C 10 22 10 10 22 10"></path></g></g></g><g id="g-root-ro_v48vsobyucr2-fill" data-item-order="-10368" data-item-id="ro_v48vsobyucr2" data-item-class="Shape Stroke Fill" data-item-index="none" data-renderer-id="0" transform="translate(447, 3)"><g id="ro_v48vsobyucr2-fill" stroke="none" fill="#e6efff"><g><path d="M 22 10L 190 10C 190 10 202 10 202 22L 202 52C 202 52 202 64 190 64L 22 64C 22 64 10 64 10 52L 10 22C 10 22 10 10 22 10"></path></g></g></g><g id="g-root-2_8zmqdl96zt3d-fill" data-item-order="0" data-item-id="2_8zmqdl96zt3d" data-item-class="Icon Stroke" data-item-index="none" data-renderer-id="0" transform="translate(459, 15)"></g><g id="g-root-tx__m98cmwbyub5u-fill" data-item-order="0" data-item-id="tx__m98cmwbyub5u" data-item-class="Label Stroke" data-item-index="none" data-renderer-id="0" transform="translate(495, 69)"><g id="tx__m98cmwbyub5u-fill" stroke="none" fill="#484848"><g><text style="font: 20px Roboto, sans-serif; white-space: pre;"><tspan x="15.99" y="33.5" dominant-baseline="ideographic">自律感</tspan></text></g></g></g><g id="g-root-tx__18fpe60byub64-fill" data-item-order="0" data-item-id="tx__18fpe60byub64" data-item-class="Label Stroke" data-item-index="none" data-renderer-id="0" transform="translate(495, 18)"><g id="tx__18fpe60byub64-fill" stroke="none" fill="#4682e3"><g><text style="font: 20px Roboto, sans-serif; white-space: pre;"><tspan x="15.98" y="33.5" dominant-baseline="ideographic">增强的注意力</tspan></text></g></g></g><g id="g-root-tx__qu1ng8byvr4f-fill" data-item-order="0" data-item-id="tx__qu1ng8byvr4f" data-item-class="Label Stroke" data-item-index="none" data-renderer-id="0" transform="translate(15, 18)"><g id="tx__qu1ng8byvr4f-fill" stroke="none" fill="#3bc482"><g><text style="font: 20px Roboto, sans-serif; white-space: pre;"><tspan x="15.98" y="33.5" dominant-baseline="ideographic">心理上的放松</tspan></text></g></g></g><g id="g-root-tx__m98cmwbyub5v-fill" data-item-order="0" data-item-id="tx__m98cmwbyub5v" data-item-class="Label Stroke" data-item-index="none" data-renderer-id="0" transform="translate(495, 105)"><g id="tx__m98cmwbyub5v-fill" stroke="none" fill="#484848"><g><text style="font: 20px Roboto, sans-serif; white-space: pre;"><tspan x="13.99" y="33.5" dominant-baseline="ideographic">分散与专注</tspan></text></g></g></g><g id="g-root-tx__qofdo8byudjc-fill" data-item-order="0" data-item-id="tx__qofdo8byudjc" data-item-class="Label Stroke" data-item-index="none" data-renderer-id="0" transform="translate(63, 105)"><g id="tx__qofdo8byudjc-fill" stroke="none" fill="#484848"><g><text style="font: 20px Roboto, sans-serif; white-space: pre;"><tspan x="11.99" y="33.5" dominant-baseline="ideographic">社交平衡</tspan></text></g></g></g><g id="g-root-tx__v48vsobyucr3-fill" data-item-order="0" data-item-id="tx__v48vsobyucr3" data-item-class="Label Stroke" data-item-index="none" data-renderer-id="0" transform="translate(63, 69)"><g id="tx__v48vsobyucr3-fill" stroke="none" fill="#484848"><g><text style="font: 20px Roboto, sans-serif; white-space: pre;"><tspan x="11.99" y="33.5" dominant-baseline="ideographic">环境氛围</tspan></text></g></g></g><g id="g-root-tx__1umstmgbzcmby-fill" data-item-order="0" data-item-id="tx__1umstmgbzcmby" data-item-class="Label Stroke" data-item-index="none" data-renderer-id="0" transform="translate(267, 93)"><g id="tx__1umstmgbzcmby-fill" stroke="none" fill="#484848"><g><text style="font: 20px Roboto, sans-serif; white-space: pre;"><tspan x="13.98" y="33.5" dominant-baseline="ideographic">咖啡店对工</tspan><tspan x="13.98" y="57.5" dominant-baseline="ideographic">作和放松的</tspan><tspan x="43.99" y="81.5" dominant-baseline="ideographic">好处</tspan></text></g></g></g><g id="g-root-1_1uljvawc90zk5-fill" data-item-order="0" data-item-id="1_1uljvawc90zk5" data-item-class="Icon Stroke" data-item-index="none" data-renderer-id="0" transform="translate(153, 15)"></g><g id="g-root-mug_1hbysc8bzckr3-fill" data-item-order="0" data-item-id="mug_1hbysc8bzckr3" data-item-class="Icon Stroke" data-item-index="none" data-renderer-id="0" transform="translate(297, 39)"></g><g id="g-root-cu_hz14agbyvpj6-fill" data-item-order="2" data-item-id="cu_hz14agbyvpj6" data-item-class="Curve Stroke ColorFillGray ColorStrokeGray" data-item-index="none" data-renderer-id="0" transform="translate(195, 30)"></g><g id="g-root-cu_hz14agbyvpj9-fill" data-item-order="2" data-item-id="cu_hz14agbyvpj9" data-item-class="Curve Stroke ColorFillGray ColorStrokeGray" data-item-index="none" data-renderer-id="0" transform="translate(381, 30)"></g><g id="g-root-cu_hz14agbyvpjc-fill" data-item-order="2" data-item-id="cu_hz14agbyvpjc" data-item-class="Curve Stroke ColorFillGray ColorStrokeGray" data-item-index="none" data-renderer-id="0" transform="translate(153, 57)"></g><g id="g-root-cu_dj7m60byvqbn-fill" data-item-order="2" data-item-id="cu_dj7m60byvqbn" data-item-class="Curve Stroke ColorFillGray ColorStrokeGray" data-item-index="none" data-renderer-id="0" transform="translate(153, 57)"></g><g id="g-root-cu_dj7m60byvqbp-fill" data-item-order="2" data-item-id="cu_dj7m60byvqbp" data-item-class="Curve Stroke ColorFillGray ColorStrokeGray" data-item-index="none" data-renderer-id="0" transform="translate(153, 57)"></g><g id="g-root-cu_dj7m60byvqbr-fill" data-item-order="2" data-item-id="cu_dj7m60byvqbr" data-item-class="Curve Stroke ColorFillGray ColorStrokeGray" data-item-index="none" data-renderer-id="0" transform="translate(471, 57)"></g><g id="g-root-cu_93e41kbyvr42-fill" data-item-order="2" data-item-id="cu_93e41kbyvr42" data-item-class="Curve Stroke ColorFillGray ColorStrokeGray" data-item-index="none" data-renderer-id="0" transform="translate(471, 57)"></g><g id="g-root-cu_93e41kbyvr44-fill" data-item-order="2" data-item-id="cu_93e41kbyvr44" data-item-class="Curve Stroke ColorFillGray ColorStrokeGray" data-item-index="none" data-renderer-id="0" transform="translate(471, 57)"></g><g id="g-root-ro_1lrsagobzckqo-stroke" data-item-order="-16560" data-item-id="ro_1lrsagobzckqo" data-item-class="Shape Stroke Fill" data-item-index="none" data-renderer-id="0" transform="translate(261, 33)"><g id="ro_1lrsagobzckqo-stroke" fill="none" stroke-linecap="round" stroke-linejoin="round" stroke-miterlimit="4" stroke="#484848" stroke-width="2"><g><path d="M 16 10L 124 10C 124 10 130 10 130 16L 130 142C 130 142 130 148 124 148L 16 148C 16 148 10 148 10 142L 10 16C 10 16 10 10 16 10"></path></g></g></g><g id="g-root-ro_me85bsbyvrwp-stroke" data-item-order="-10368" data-item-id="ro_me85bsbyvrwp" data-item-class="Shape Stroke Fill" data-item-index="none" data-renderer-id="0" transform="translate(3, 3)"><g id="ro_me85bsbyvrwp-stroke" fill="none" stroke-linecap="round" stroke-linejoin="round" stroke-miterlimit="4" stroke="#3bc482" stroke-width="2"><g><path d="M 22 10L 190 10C 190 10 202 10 202 22L 202 52C 202 52 202 64 190 64L 22 64C 22 64 10 64 10 52L 10 22C 10 22 10 10 22 10"></path></g></g></g><g id="g-root-ro_v48vsobyucr2-stroke" data-item-order="-10368" data-item-id="ro_v48vsobyucr2" data-item-class="Shape Stroke Fill" data-item-index="none" data-renderer-id="0" transform="translate(447, 3)"><g id="ro_v48vsobyucr2-stroke" fill="none" stroke-linecap="round" stroke-linejoin="round" stroke-miterlimit="4" stroke="#4682e3" stroke-width="2"><g><path d="M 22 10L 190 10C 190 10 202 10 202 22L 202 52C 202 52 202 64 190 64L 22 64C 22 64 10 64 10 52L 10 22C 10 22 10 10 22 10"></path></g></g></g><g id="g-root-2_8zmqdl96zt3d-stroke" data-item-order="0" data-item-id="2_8zmqdl96zt3d" data-item-class="Icon Stroke" data-item-index="none" data-renderer-id="0" transform="translate(459, 15)"><g id="2_8zmqdl96zt3d-stroke" fill="none" stroke-linecap="round" stroke-linejoin="round" stroke-miterlimit="4" stroke="#17b0e3" stroke-width="2"><g><path d="M 25 14.875C 25.25 15.875 25 16.875 25 18M 23.125 13C 23 14 24 14.875 25 14.875C 26 14.75 26.875 14 26.875 13C 26.875 11.875 26 11.25 25 11.125C 24 10.875 23.25 11.875 23.125 13M 35.375 25.5C 34.375 25.25 33.5 25.625 32.5 25.5M 35.375 25.5C 35.5 26.5 36.25 27 37.25 27.375C 38.125 27.625 39.125 26.5 39.125 25.5C 39 24.375 38.25 23.625 37.25 23.625C 36.125 23.625 35.25 24.5 35.375 25.5M 32.5 18C 31.75 18.75 30.75 19.375 30.25 20.25M 31.875 16.75C 31.875 17.75 32.75 18.375 33.75 18.625C 34.75 18.75 35.625 17.75 35.625 16.75C 35.75 15.625 34.875 14.625 33.75 14.875C 32.75 15 32.125 15.75 31.875 16.75M 14.75 25.5C 15.625 25.375 16.625 25.5 17.5 25.5M 11 25.5C 10.625 26.375 11.875 27 12.875 27.375C 13.75 27.625 14.625 26.5 14.75 25.5C 14.75 24.5 13.75 23.875 12.875 23.625C 11.875 23.25 10.875 24.5 11 25.5M 17.5 18C 18.25 18.75 18.875 19.625 19.75 20.25M 14.375 16.75C 14.125 17.75 15.125 18.5 16.25 18.625C 17.25 18.625 18.375 17.75 18.125 16.75C 17.875 15.75 17.25 14.875 16.25 14.875C 15.125 14.875 14.5 15.75 14.375 16.75M 20.75 25C 23.25 27.375 26.75 28.25 29.875 26.875M 20.125 27.5C 20.125 30.25 22.375 32.25 25 32.375C 27.75 32.5 29.375 30.125 29.875 27.5C 30.375 24.875 27.625 21.875 25 22.625C 22.5 23.5 19.375 24.875 20.125 27.5M 32.5 38.875C 32.25 35.75 28.25 34.375 25 34.125C 21.875 33.875 19.75 36.625 17.5 38.875M 25 34.125C 24.875 35.75 24.5 37.375 25 38.875M 25 14.844L 25 17.969M 23.125 12.969C 23.125 14.004 23.964 14.844 25 14.844C 26.036 14.844 26.875 14.004 26.875 12.969C 26.875 11.933 26.036 11.094 25 11.094C 23.964 11.094 23.125 11.933 23.125 12.969M 35.313 25.469L 32.5 25.469M 35.313 25.469C 35.313 26.504 36.152 27.344 37.188 27.344C 38.223 27.344 39.063 26.504 39.063 25.469C 39.063 24.433 38.223 23.594 37.188 23.594C 36.152 23.594 35.313 24.433 35.313 25.469M 32.469 18.034L 30.26 20.244M 31.92 16.709C 31.92 17.744 32.759 18.584 33.795 18.584C 34.831 18.584 35.67 17.744 35.67 16.709C 35.67 15.673 34.831 14.834 33.795 14.834C 32.759 14.834 31.92 15.673 31.92 16.709M 14.688 25.469L 17.5 25.469M 10.938 25.469C 10.938 26.504 11.777 27.344 12.813 27.344C 13.848 27.344 14.688 26.504 14.688 25.469C 14.688 24.433 13.848 23.594 12.813 23.594C 11.777 23.594 10.938 24.433 10.938 25.469M 17.531 18.034L 19.74 20.244M 14.33 16.709C 14.33 17.744 15.169 18.584 16.205 18.584C 17.241 18.584 18.08 17.744 18.08 16.709C 18.08 15.673 17.241 14.834 16.205 14.834C 15.169 14.834 14.33 15.673 14.33 16.709M 20.804 25.052C 23.142 27.474 26.734 28.196 29.826 26.866M 20.13 27.526C 20.13 30.216 22.31 32.396 25 32.396C 27.69 32.396 29.87 30.216 29.87 27.526C 29.87 24.837 27.69 22.656 25 22.656C 22.31 22.656 20.13 24.837 20.13 27.526M 32.45 38.906C 31.097 36.014 28.193 34.166 25.001 34.166C 21.808 34.166 18.904 36.014 17.551 38.906M 25 34.166L 25 38.906"></path></g></g></g><g id="g-root-tx__m98cmwbyub5u-stroke" data-item-order="0" data-item-id="tx__m98cmwbyub5u" data-item-class="Label Stroke" data-item-index="none" data-renderer-id="0" transform="translate(495, 69)"></g><g id="g-root-tx__18fpe60byub64-stroke" data-item-order="0" data-item-id="tx__18fpe60byub64" data-item-class="Label Stroke" data-item-index="none" data-renderer-id="0" transform="translate(495, 18)"></g><g id="g-root-tx__qu1ng8byvr4f-stroke" data-item-order="0" data-item-id="tx__qu1ng8byvr4f" data-item-class="Label Stroke" data-item-index="none" data-renderer-id="0" transform="translate(15, 18)"></g><g id="g-root-tx__m98cmwbyub5v-stroke" data-item-order="0" data-item-id="tx__m98cmwbyub5v" data-item-class="Label Stroke" data-item-index="none" data-renderer-id="0" transform="translate(495, 105)"></g><g id="g-root-tx__qofdo8byudjc-stroke" data-item-order="0" data-item-id="tx__qofdo8byudjc" data-item-class="Label Stroke" data-item-index="none" data-renderer-id="0" transform="translate(63, 105)"></g><g id="g-root-tx__v48vsobyucr3-stroke" data-item-order="0" data-item-id="tx__v48vsobyucr3" data-item-class="Label Stroke" data-item-index="none" data-renderer-id="0" transform="translate(63, 69)"></g><g id="g-root-tx__1umstmgbzcmby-stroke" data-item-order="0" data-item-id="tx__1umstmgbzcmby" data-item-class="Label Stroke" data-item-index="none" data-renderer-id="0" transform="translate(267, 93)"></g><g id="g-root-1_1uljvawc90zk5-stroke" data-item-order="0" data-item-id="1_1uljvawc90zk5" data-item-class="Icon Stroke" data-item-index="none" data-renderer-id="0" transform="translate(153, 15)"><g id="1_1uljvawc90zk5-stroke" fill="none" stroke-linecap="round" stroke-linejoin="round" stroke-miterlimit="4" stroke="#3bc482" stroke-width="2"><g><path d="M 21.25 14.375C 21.75 16.375 22.875 18.125 25 18.125C 27.125 18.125 29 16.375 28.75 14.375C 28.5 12.375 27 10.125 25 10.625C 23 11.125 21.125 12.375 21.25 14.375M 30.625 39.375C 30.25 39.5 31.5 38.375 16.375 35.625C 15.375 35.375 15 34.25 15.125 33.25C 15.125 32.25 16.375 31.5 17.375 32C 21.75 33.75 26.75 33.75 31.125 35.75C 32 36 32.875 36.875 32.5 37.75C 32.125 38.625 31.625 39.375 30.625 39.375M 34.375 35.25C 35 34.5 35 33.75 34.75 32.875C 34.5 32 33.5 31.625 32.625 32C 30.25 33 27.5 33 25 34M 17.875 38.5C 18.25 39 18.75 39.375 19.375 39.375C 19.75 39.375 19.75 40.5 25 37.875M 19.25 24.25C 18.875 26.125 20.5 26.5 21.75 26.25C 22.75 26.125 24 27 23.75 28C 23.75 28.125 23.875 30 21.5 30C 19.625 30.375 17.75 29.5 16.25 28.375C 15.375 27.75 15 26.75 15 25.625C 15 24.25 15.75 23 16.75 22.125C 18.25 21.625 19.625 20.625 21.25 20.625C 23.75 20.625 26.375 21.375 28.75 20.625C 30.25 20.125 31.875 21.25 33.25 22.125C 34.25 23.125 34.625 24.25 35 25.625C 34.875 26.625 34.375 27.5 33.875 28.375C 32.75 30 30.375 29.5 28.5 30C 26.125 30.375 26.25 28.125 26.25 28C 26.625 27 27.25 26.5 28.25 26.25C 29.5 26 31.5 26.125 30.75 24.25"></path><path d="M 21.25 14.375C 21.25 16.446 22.929 18.125 25 18.125C 27.071 18.125 28.75 16.446 28.75 14.375C 28.75 12.304 27.071 10.625 25 10.625C 22.929 10.625 21.25 12.304 21.25 14.375M 30.625 39.375C 30.262 39.375 31.263 39.612 16.388 35.563C 15.386 35.293 14.793 34.264 15.063 33.263C 15.332 32.261 16.361 31.668 17.363 31.938L 31.112 35.688C 32.024 35.929 32.615 36.811 32.491 37.746C 32.368 38.681 31.568 39.379 30.625 39.375ZM 34.325 35.188C 35 34.623 35.192 33.665 34.787 32.885C 34.381 32.104 33.487 31.71 32.638 31.938L 25 34.025M 17.825 38.537C 18.165 39.062 18.749 39.378 19.375 39.375C 19.712 39.375 19.375 39.45 25 37.912M 19.2 24.25C 18.375 26.013 20.45 26.325 21.788 26.263C 22.819 26.213 23.696 27.006 23.75 28.038C 23.75 28.112 23.887 30.025 21.462 30.025C 19.59 30.101 17.748 29.527 16.25 28.4C 15.463 27.696 15.009 26.693 15 25.638C 14.974 24.252 15.605 22.936 16.7 22.087C 18.03 21.143 19.619 20.632 21.25 20.625L 28.75 20.625C 30.381 20.632 31.97 21.143 33.3 22.087C 34.395 22.936 35.026 24.252 35 25.637C 35.007 26.684 34.576 27.685 33.813 28.4C 32.294 29.532 30.429 30.098 28.538 30C 26.113 30 26.25 28.112 26.25 28.038C 26.304 27 27.187 26.2 28.225 26.25C 29.563 26.313 31.625 26 30.8 24.238"></path></g></g></g><g id="g-root-mug_1hbysc8bzckr3-stroke" data-item-order="0" data-item-id="mug_1hbysc8bzckr3" data-item-class="Icon Stroke" data-item-index="none" data-renderer-id="0" transform="translate(297, 39)"><g id="mug_1hbysc8bzckr3-stroke" fill="none" stroke-linecap="round" stroke-linejoin="round" stroke-miterlimit="4" stroke="#484848" stroke-width="2"><g><path d="M 29 44.4C 23.849 41.245 17.985 39.443 11.952 39.16C 11.419 39.134 10.999 38.694 11 38.16L 11 12C 11 11.726 11.112 11.463 11.311 11.274C 11.51 11.085 11.778 10.986 12.052 11C 18.051 11.298 23.879 13.098 29 16.236C 34.121 13.098 39.949 11.298 45.948 11C 46.222 10.986 46.49 11.085 46.689 11.274C 46.888 11.463 47 11.726 47 12L 47 33M 29 16.236L 29 44.41M 29 44.4C 24.005 43.122 18.809 42.824 13.7 43.524C 13.412 43.565 13.12 43.478 12.901 43.286C 12.681 43.093 12.557 42.815 12.56 42.524L 12.56 39.2M 36 37L 50 37C 50.552 37 51 37.448 51 38L 51 49C 51 51.209 49.209 53 47 53L 39 53C 36.791 53 35 51.209 35 49L 35 38C 35 37.448 35.448 37 36 37ZM 51 40L 52 40C 54.761 40 57 42.239 57 45C 57 47.761 54.761 50 52 50L 50.874 50M 29 57L 57 57"></path></g></g></g><g id="g-root-cu_hz14agbyvpj6-stroke" data-item-order="2" data-item-id="cu_hz14agbyvpj6" data-item-class="Curve Stroke ColorFillGray ColorStrokeGray" data-item-index="none" data-renderer-id="0" transform="translate(195, 30)"><g id="cu_hz14agbyvpj6-stroke" fill="none" stroke-linecap="round" stroke-linejoin="round" stroke-miterlimit="4" stroke="#bbbbbb" stroke-width="2" stroke-dasharray="5.0, 7.0"><g><path d="M 76 59L 71.9 59L 67 59C 53.745 59 43 48.255 43 35L 43 34.9L 43 34C 43 20.745 32.255 10 19 10L 18.9 10L 10 10"></path></g></g></g><g id="g-root-cu_hz14agbyvpj9-stroke" data-item-order="2" data-item-id="cu_hz14agbyvpj9" data-item-class="Curve Stroke ColorFillGray ColorStrokeGray" data-item-index="none" data-renderer-id="0" transform="translate(381, 30)"><g id="cu_hz14agbyvpj9-stroke" fill="none" stroke-linecap="round" stroke-linejoin="round" stroke-miterlimit="4" stroke="#bbbbbb" stroke-width="2" stroke-dasharray="5.0, 7.0"><g><path d="M 10 59L 14.1 59L 19 59C 32.255 59 43 48.255 43 35L 43 34.9L 43 34C 43 20.745 53.745 10 67 10L 67.1 10L 76 10"></path></g></g></g><g id="g-root-cu_hz14agbyvpjc-stroke" data-item-order="2" data-item-id="cu_hz14agbyvpjc" data-item-class="Curve Stroke ColorFillGray ColorStrokeGray" data-item-index="none" data-renderer-id="0" transform="translate(153, 57)"><g id="cu_hz14agbyvpjc-stroke" fill="none" stroke-linecap="round" stroke-linejoin="round" stroke-miterlimit="4" stroke="#bbbbbb" stroke-width="2" stroke-dasharray="5.0, 7.0"><g><path d="M 28 10L 28 22L 28 34L 19 34L 10 34"></path></g></g></g><g id="g-root-cu_dj7m60byvqbn-stroke" data-item-order="2" data-item-id="cu_dj7m60byvqbn" data-item-class="Curve Stroke ColorFillGray ColorStrokeGray" data-item-index="none" data-renderer-id="0" transform="translate(153, 57)"><g id="cu_dj7m60byvqbn-stroke" fill="none" stroke-linecap="round" stroke-linejoin="round" stroke-miterlimit="4" stroke="#bbbbbb" stroke-width="2" stroke-dasharray="5.0, 7.0"><g><path d="M 28 10L 28 40L 28 70L 19 70L 10 70"></path></g></g></g><g id="g-root-cu_dj7m60byvqbp-stroke" data-item-order="2" data-item-id="cu_dj7m60byvqbp" data-item-class="Curve Stroke ColorFillGray ColorStrokeGray" data-item-index="none" data-renderer-id="0" transform="translate(153, 57)"><g id="cu_dj7m60byvqbp-stroke" fill="none" stroke-linecap="round" stroke-linejoin="round" stroke-miterlimit="4" stroke="#bbbbbb" stroke-width="2" stroke-dasharray="5.0, 7.0"><g><path d="M 28 10L 28 22L 28 94C 28 100.627 22.627 106 16 106L 15.9 106L 10 106"></path></g></g></g><g id="g-root-cu_dj7m60byvqbr-stroke" data-item-order="2" data-item-id="cu_dj7m60byvqbr" data-item-class="Curve Stroke ColorFillGray ColorStrokeGray" data-item-index="none" data-renderer-id="0" transform="translate(471, 57)"><g id="cu_dj7m60byvqbr-stroke" fill="none" stroke-linecap="round" stroke-linejoin="round" stroke-miterlimit="4" stroke="#bbbbbb" stroke-width="2" stroke-dasharray="5.0, 7.0"><g><path d="M 10 10L 10 22L 10 34L 19 34L 28 34"></path></g></g></g><g id="g-root-cu_93e41kbyvr42-stroke" data-item-order="2" data-item-id="cu_93e41kbyvr42" data-item-class="Curve Stroke ColorFillGray ColorStrokeGray" data-item-index="none" data-renderer-id="0" transform="translate(471, 57)"><g id="cu_93e41kbyvr42-stroke" fill="none" stroke-linecap="round" stroke-linejoin="round" stroke-miterlimit="4" stroke="#bbbbbb" stroke-width="2" stroke-dasharray="5.0, 7.0"><g><path d="M 10 10L 10 40L 10 70L 19 70L 28 70"></path></g></g></g><g id="g-root-cu_93e41kbyvr44-stroke" data-item-order="2" data-item-id="cu_93e41kbyvr44" data-item-class="Curve Stroke ColorFillGray ColorStrokeGray" data-item-index="none" data-renderer-id="0" transform="translate(471, 57)"><g id="cu_93e41kbyvr44-stroke" fill="none" stroke-linecap="round" stroke-linejoin="round" stroke-miterlimit="4" stroke="#bbbbbb" stroke-width="2" stroke-dasharray="5.0, 7.0"><g><path d="M 10 10L 10 22L 10 94C 10 100.627 15.373 106 22 106L 22.1 106L 28 106"></path></g></g></g></g></svg>